<svg width="39" height="39" viewBox="0 0 39 39" fill="none" xmlns="http://www.w3.org/2000/svg">
<path d="M19.5 3.5625C24.6562 3.5625 25.3594 3.5625 27.4688 3.5625C29.3438 3.5625 30.2812 4.03125 30.9844 4.26563C31.9219 4.73438 32.625 4.96875 33.3281 5.67188C34.0312 6.375 34.5 7.07813 34.7344 8.01563C34.9688 8.71875 35.2031 9.65625 35.4375 11.5313C35.4375 13.6406 35.4375 14.1094 35.4375 19.5C35.4375 24.8906 35.4375 25.3594 35.4375 27.4688C35.4375 29.3438 34.9688 30.2812 34.7344 30.9844C34.2656 31.9219 34.0312 32.625 33.3281 33.3281C32.625 34.0312 31.9219 34.5 30.9844 34.7344C30.2812 34.9688 29.3438 35.2031 27.4688 35.4375C25.3594 35.4375 24.8906 35.4375 19.5 35.4375C14.1094 35.4375 13.6406 35.4375 11.5313 35.4375C9.65625 35.4375 8.71875 34.9688 8.01563 34.7344C7.07813 34.2656 6.375 34.0312 5.67188 33.3281C4.96875 32.625 4.5 31.9219 4.26563 30.9844C4.03125 30.2812 3.79688 29.3438 3.5625 27.4688C3.5625 25.3594 3.5625 24.8906 3.5625 19.5C3.5625 14.1094 3.5625 13.6406 3.5625 11.5313C3.5625 9.65625 4.03125 8.71875 4.26563 8.01563C4.73438 7.07813 4.96875 6.375 5.67188 5.67188C6.375 4.96875 7.07813 4.5 8.01563 4.26563C8.71875 4.03125 9.65625 3.79688 11.5313 3.5625C13.6406 3.5625 14.3438 3.5625 19.5 3.5625ZM19.5 0.046875C14.1094 0.046875 13.6406 0.046875 11.5313 0.046875C9.42188 0.046875 8.01563 0.515626 6.84375 0.984376C5.67188 1.45313 4.5 2.15625 3.32813 3.32813C2.15625 4.5 1.6875 5.4375 0.984376 6.84375C0.515626 8.01563 0.28125 9.42188 0.046875 11.5313C0.046875 13.6406 0.046875 14.3438 0.046875 19.5C0.046875 24.8906 0.046875 25.3594 0.046875 27.4688C0.046875 29.5781 0.515626 30.9844 0.984376 32.1562C1.45313 33.3281 2.15625 34.5 3.32813 35.6719C4.5 36.8438 5.4375 37.3125 6.84375 38.0156C8.01563 38.4844 9.42188 38.7187 11.5313 38.9531C13.6406 38.9531 14.3438 38.9531 19.5 38.9531C24.6562 38.9531 25.3594 38.9531 27.4688 38.9531C29.5781 38.9531 30.9844 38.4844 32.1562 38.0156C33.3281 37.5469 34.5 36.8438 35.6719 35.6719C36.8438 34.5 37.3125 33.5625 38.0156 32.1562C38.4844 30.9844 38.7187 29.5781 38.9531 27.4688C38.9531 25.3594 38.9531 24.6562 38.9531 19.5C38.9531 14.3438 38.9531 13.6406 38.9531 11.5313C38.9531 9.42188 38.4844 8.01563 38.0156 6.84375C37.5469 5.67188 36.8438 4.5 35.6719 3.32813C34.5 2.15625 33.5625 1.6875 32.1562 0.984376C30.9844 0.515626 29.5781 0.28125 27.4688 0.046875C25.3594 0.046875 24.8906 0.046875 19.5 0.046875Z" fill="white"/>
<path d="M19.5 9.42188C13.875 9.42188 9.42188 13.875 9.42188 19.5C9.42188 25.125 13.875 29.5781 19.5 29.5781C25.125 29.5781 29.5781 25.125 29.5781 19.5C29.5781 13.875 25.125 9.42188 19.5 9.42188ZM19.5 26.0625C15.9844 26.0625 12.9375 23.25 12.9375 19.5C12.9375 15.9844 15.75 12.9375 19.5 12.9375C23.0156 12.9375 26.0625 15.75 26.0625 19.5C26.0625 23.0156 23.0156 26.0625 19.5 26.0625Z" fill="white"/>
<path d="M29.8125 11.5313C31.1069 11.5313 32.1562 10.4819 32.1562 9.1875C32.1562 7.89308 31.1069 6.84375 29.8125 6.84375C28.5181 6.84375 27.4688 7.89308 27.4688 9.1875C27.4688 10.4819 28.5181 11.5313 29.8125 11.5313Z" fill="white"/>
</svg>
