<svg width="34" height="34" viewBox="0 0 34 34" fill="none" xmlns="http://www.w3.org/2000/svg">
<path d="M14.5283 5.84692C14.692 5.8388 14.8553 5.87076 15.0039 5.9397C15.1525 6.00863 15.2824 6.11232 15.3818 6.24243L26.8418 21.2151H26.8428C26.9418 21.3441 27.0079 21.4954 27.0361 21.6555C27.0643 21.8155 27.0537 21.9801 27.0049 22.135C26.956 22.2901 26.8699 22.4312 26.7549 22.5461C26.6399 22.661 26.4988 22.7464 26.3438 22.7952C23.931 23.5551 18.4471 25.1714 14.2744 25.5696L14.2539 25.5715L14.2344 25.5647L14.2656 25.47L14.2334 25.5647H14.2324L14.2305 25.5637C14.2283 25.563 14.2246 25.5622 14.2207 25.5608C14.2127 25.5579 14.2013 25.5529 14.1865 25.5471C14.1571 25.5356 14.1141 25.5185 14.0596 25.4934C13.9502 25.4431 13.7927 25.3622 13.5977 25.2415C13.2075 24.9999 12.6663 24.5971 12.0557 23.9475C10.8337 22.6476 9.33527 20.3637 8.20117 16.4231L8.18945 16.386L8.20801 16.3508V16.3499C8.20838 16.3491 8.20922 16.3474 8.20996 16.3459C8.21143 16.343 8.21399 16.3388 8.2168 16.3333C8.2226 16.3218 8.2309 16.3047 8.24219 16.2825C8.26505 16.2375 8.29883 16.1703 8.34277 16.0842C8.43067 15.9121 8.55907 15.6618 8.7207 15.3489C9.04404 14.723 9.50106 13.8468 10.0352 12.845C11.1032 10.8417 12.4816 8.33509 13.7188 6.32544C13.8049 6.18605 13.9234 6.06892 14.0645 5.9856C14.2055 5.90237 14.3648 5.85504 14.5283 5.84692Z" stroke="white" stroke-width="0.2"/>
<path d="M8.38867 16.3588C9.29314 18.6267 10.7792 20.8875 12.042 22.5834C12.6729 23.4307 13.2476 24.1361 13.6641 24.6293C13.872 24.8756 14.0407 25.0688 14.1572 25.2006C14.2155 25.2665 14.2614 25.317 14.292 25.351C14.3073 25.3679 14.3184 25.3815 14.3262 25.39C14.3298 25.3941 14.333 25.3967 14.335 25.3988C14.3359 25.3998 14.3364 25.4012 14.3369 25.4018H14.3379V25.4027L14.4121 25.4828L14.3252 25.5492C12.3708 27.044 10.4897 27.9966 8.88086 28.4594C7.37658 28.8921 6.09559 28.9011 5.2168 28.5053L5.04297 28.4184C4.25742 27.9513 3.59826 27.2007 3.10938 26.4115C2.62051 25.6223 2.29669 24.7854 2.18848 24.1381L2.1875 24.1332C2.10983 23.485 2.18545 22.8275 2.40918 22.2143C2.5716 21.7677 2.812 21.3533 3.11914 20.9906C4.14775 19.7631 5.4282 18.5939 6.44922 17.7328C6.95983 17.3022 7.40654 16.9482 7.72559 16.7016C7.88517 16.5782 8.0127 16.4811 8.10059 16.4154C8.14453 16.3826 8.1791 16.3582 8.20215 16.3412C8.21366 16.3327 8.22259 16.326 8.22852 16.3217C8.23115 16.3198 8.23291 16.3179 8.23438 16.3168L8.23633 16.3158L8.34082 16.2397L8.38867 16.3588Z" stroke="white" stroke-width="0.2"/>
<path d="M7.97363 24.6342C8.10279 24.6637 8.21464 24.7437 8.28516 24.8558C8.35568 24.9681 8.37903 25.1036 8.34961 25.2328C8.32011 25.3621 8.24021 25.4747 8.12793 25.5453L7.16016 26.1537L7.15918 26.1527C7.08026 26.2023 6.98966 26.2286 6.89648 26.2289L6.89746 26.2299L6.89551 26.2289L6.89453 26.2299V26.2289C6.6474 26.2336 6.47599 26.0626 6.41895 25.8685C6.36171 25.6733 6.41385 25.435 6.62988 25.3051L7.5957 24.6986C7.70799 24.628 7.84434 24.6047 7.97363 24.6342ZM7.24512 23.476C7.37441 23.5055 7.48705 23.5853 7.55762 23.6976C7.62799 23.8098 7.65056 23.9454 7.62109 24.0746C7.59157 24.2038 7.51261 24.3165 7.40039 24.3871L6.43262 24.9945C6.35333 25.0445 6.26168 25.0706 6.16797 25.0707L6.16895 25.0717C5.92051 25.0776 5.74765 24.905 5.69043 24.7103C5.63325 24.5156 5.68566 24.278 5.90039 24.1478L6.86816 23.5404C6.98043 23.4699 7.11585 23.4465 7.24512 23.476ZM6.51758 22.3168C6.64668 22.3463 6.75857 22.4264 6.8291 22.5385C6.89966 22.6507 6.92306 22.7871 6.89355 22.9164C6.86398 23.0455 6.78404 23.1574 6.67188 23.2279L5.7041 23.8353L5.70508 23.8363C5.62597 23.8862 5.53394 23.9112 5.44043 23.9115L5.44141 23.9125L5.43945 23.9115L5.43848 23.9125V23.9115C5.1914 23.9163 5.02001 23.7461 4.96289 23.5521C4.90566 23.3575 4.95746 23.1199 5.17188 22.9896L6.13965 22.3812C6.25193 22.3107 6.38829 22.2873 6.51758 22.3168Z" fill="white" stroke="white" stroke-width="0.2"/>
<path d="M13.4277 27.3197C13.522 27.3414 13.61 27.3924 13.6807 27.4749L13.7451 27.5677L13.7461 27.5697C14.1566 28.3312 14.6329 29.0556 15.1689 29.7347H15.168C15.2697 29.8621 15.3446 30.0091 15.3877 30.1664C15.4303 30.3219 15.4406 30.4842 15.4189 30.6439L15.4199 30.6449C15.372 31.1365 14.9936 31.4461 14.6445 31.6742C14.3003 31.9232 13.8859 32.0571 13.4609 32.057C13.1248 32.0575 12.7937 31.9727 12.499 31.8109C10.7142 30.8276 8.64324 29.3329 8.05176 28.8988L8.05078 28.8978C7.94576 28.8188 7.87572 28.7016 7.85645 28.5716C7.83726 28.4415 7.87039 28.3086 7.94824 28.2025C8.02609 28.0964 8.14255 28.025 8.27246 28.0042C8.40235 27.9835 8.53562 28.0156 8.64258 28.0921H8.64355C9.22479 28.5186 11.2496 29.981 12.9795 30.9349H12.9805C13.228 31.0685 13.4612 31.0866 13.6826 31.0306C13.9073 30.9737 14.1263 30.8392 14.3389 30.6605L14.3438 30.6566C14.3665 30.6399 14.3859 30.6184 14.4004 30.5941C14.4148 30.5699 14.4239 30.5429 14.4277 30.515C14.4316 30.487 14.4302 30.4582 14.4229 30.431C14.4192 30.4174 14.4135 30.4045 14.4072 30.3919L14.3848 30.3568C13.8123 29.6315 13.3038 28.8576 12.8652 28.0443L12.8643 28.0433C12.7915 27.9031 12.7864 27.7628 12.8311 27.6419C12.875 27.5234 12.9648 27.4297 13.0703 27.3724C13.1761 27.3152 13.3042 27.2913 13.4277 27.3197ZM19.3037 11.2777C21.2568 10.5532 23.4507 12.0939 23.4189 14.182L23.4199 14.2845C23.4136 14.548 23.3357 14.9623 23.2031 15.3275C23.1271 15.5368 23.0306 15.7381 22.9131 15.889C22.7969 16.0381 22.6458 16.1551 22.4619 16.1556H22.4609C22.3703 16.1544 22.2813 16.1288 22.2041 16.0814C22.127 16.034 22.0635 15.9672 22.0215 15.8871C21.9795 15.807 21.96 15.7166 21.9648 15.6263C21.9698 15.5359 21.9992 15.4476 22.0498 15.3724H22.0508C22.3003 15.0095 22.4282 14.5763 22.417 14.1361C22.4057 13.696 22.2558 13.2708 21.9883 12.9212C21.7206 12.5715 21.3488 12.3146 20.9268 12.1888C20.5049 12.0631 20.0539 12.0741 19.6387 12.2201L19.6367 12.221C19.4869 12.2714 19.3479 12.2547 19.2354 12.1917C19.1249 12.1299 19.046 12.0267 19.0059 11.9134C18.9658 11.8002 18.9627 11.6706 19.0098 11.5531C19.0578 11.4334 19.1553 11.3327 19.3037 11.2777Z" fill="white" stroke="white" stroke-width="0.2"/>
<path d="M13.3789 6.11526C13.8618 5.2862 15.135 5.22198 15.6992 5.99905L27.1611 20.9727C27.2988 21.1525 27.3914 21.3629 27.4307 21.586C27.4699 21.8093 27.454 22.0396 27.3857 22.2559C27.3174 22.472 27.1984 22.6689 27.0381 22.8291C26.8777 22.9893 26.681 23.1087 26.4648 23.1768C24.228 23.8795 18.5375 25.5748 14.2744 25.9698L14.2637 25.9707V25.9698C13.9522 25.9644 13.7834 25.7285 13.7715 25.4942C13.7597 25.2592 13.9049 25.0076 14.2168 24.9727H14.2188C18.3806 24.5749 23.9559 22.9181 26.1641 22.2227C26.227 22.2028 26.2843 22.1678 26.3311 22.1211C26.3778 22.0744 26.4128 22.0171 26.4326 21.9541C26.4525 21.8911 26.4568 21.8239 26.4453 21.7588C26.4338 21.6939 26.4064 21.6324 26.3662 21.5801L14.9062 6.60745H14.9053C14.8649 6.55456 14.8123 6.51148 14.752 6.48343C14.6917 6.45551 14.6249 6.4431 14.5586 6.44632C14.4923 6.44962 14.4274 6.46829 14.3701 6.50198C14.3128 6.53573 14.2646 6.58319 14.2295 6.63968C11.7991 10.5877 8.77602 16.5575 8.74414 16.6211L8.74316 16.6221C8.67077 16.7623 8.5594 16.8466 8.43457 16.8789C8.31206 16.9107 8.18383 16.8909 8.07617 16.8369C7.96849 16.783 7.87574 16.6919 7.82812 16.5742C7.77974 16.4545 7.78096 16.3145 7.85059 16.1719L7.85156 16.1709C7.88161 16.1108 10.925 10.1015 13.3789 6.11526Z" fill="white" stroke="white" stroke-width="0.2"/>
<path d="M8.30664 15.9027C8.3454 15.8956 8.39851 15.8936 8.44629 15.9183C8.51608 15.94 8.58062 15.9766 8.63477 16.0258C8.69087 16.0768 8.73454 16.1399 8.7627 16.2103C10.3047 20.0751 13.6116 23.9723 14.4424 24.9164L14.6348 25.1312L14.6357 25.1322C14.6822 25.1835 14.7172 25.2444 14.7393 25.3099C14.7612 25.3753 14.7696 25.4444 14.7637 25.5131C14.7576 25.582 14.7372 25.6495 14.7041 25.7103C14.671 25.771 14.6259 25.8242 14.5713 25.8666L14.5703 25.8676C11.7851 27.9974 8.90467 29.1986 6.75879 29.1986C6.03371 29.1986 5.38787 29.0611 4.85742 28.7719L4.85449 28.7699C4.02236 28.2805 3.31965 27.5009 2.79492 26.6644C2.27023 25.828 1.91813 24.9268 1.79297 24.1879V24.184C1.71792 23.5697 1.76945 22.9462 1.94531 22.3529C2.12123 21.7595 2.41766 21.208 2.81543 20.7338L2.81641 20.7328C3.87522 19.5182 5.18801 18.2613 6.27148 17.3363C6.81306 16.8739 7.29903 16.4925 7.66895 16.2406C7.85337 16.115 8.01268 16.0197 8.13672 15.9623C8.1982 15.9338 8.25582 15.912 8.30664 15.9027ZM8.08789 17.182C7.14258 17.9142 5.07298 19.5961 3.58105 21.3763C3.27167 21.7451 3.0413 22.1737 2.9043 22.6351C2.76733 23.0965 2.72718 23.5812 2.78516 24.059C2.8797 24.6091 3.17007 25.3606 3.61328 26.0804C4.05741 26.8017 4.64916 27.4815 5.33887 27.8949C5.99364 28.2507 7.10227 28.3187 8.53711 27.9379C9.94767 27.5635 11.658 26.7579 13.5303 25.3939C12.5186 24.2321 9.68683 20.81 8.08789 17.182ZM14.8252 9.51306C14.9675 9.53382 15.0957 9.61071 15.1816 9.72595L25.1035 23.0365L25.1895 23.1508L25.0527 23.1918C24.7684 23.277 24.4647 23.3663 24.1465 23.4584L24.0801 23.4779L24.0391 23.4222L14.3125 10.3744C14.2266 10.2591 14.1903 10.1143 14.2109 9.97205C14.2317 9.82987 14.3077 9.70156 14.4229 9.6156C14.5381 9.52971 14.683 9.49241 14.8252 9.51306ZM31.6836 15.6068C32.3382 15.5367 32.4568 16.5057 31.8086 16.599H31.8066L29.873 16.8441C29.8521 16.8468 29.8307 16.848 29.8096 16.848H29.8086C29.193 16.8429 29.1315 15.936 29.7461 15.8519H29.7471L31.6816 15.6068H31.6836ZM30.0488 6.54724C30.1807 6.55982 30.3023 6.62484 30.3867 6.72693C30.4712 6.82917 30.5116 6.96114 30.499 7.09314C30.4864 7.22496 30.4224 7.34665 30.3203 7.43103L28.8164 8.67322C28.766 8.71477 28.7079 8.74577 28.6455 8.76501C28.5828 8.78429 28.5165 8.79168 28.4512 8.78552C28.3858 8.77932 28.3217 8.75963 28.2637 8.72888C28.2058 8.69815 28.1541 8.65633 28.1123 8.60583C28.0706 8.55529 28.0398 8.49661 28.0205 8.43396C28.0013 8.37138 27.9939 8.30577 28 8.2406C28.0062 8.17521 28.0259 8.11114 28.0566 8.0531C28.0874 7.99516 28.1291 7.94353 28.1797 7.90173L29.6836 6.65955C29.7857 6.57541 29.9171 6.53474 30.0488 6.54724ZM22.7432 1.94568C22.8084 1.95482 22.871 1.97666 22.9277 2.01013C22.9846 2.04371 23.0347 2.08814 23.0742 2.14099C23.1137 2.19376 23.142 2.25388 23.1582 2.31775C23.1744 2.38174 23.1777 2.44875 23.168 2.51404C23.1583 2.57921 23.1365 2.64216 23.1025 2.69861L23.1016 2.69763L22.1104 4.37634C22.077 4.43283 22.0329 4.48242 21.9805 4.52185C21.928 4.56128 21.8683 4.59047 21.8047 4.60681C21.7411 4.62316 21.6744 4.62679 21.6094 4.61755C21.5446 4.6083 21.4821 4.58636 21.4258 4.5531C21.3116 4.48564 21.2293 4.37487 21.1963 4.24646C21.1633 4.11809 21.1826 3.98168 21.25 3.86755L22.2412 2.18884C22.2743 2.13196 22.3187 2.08221 22.3711 2.04236C22.4235 2.00251 22.4832 1.97312 22.5469 1.95642C22.6107 1.93972 22.6778 1.93653 22.7432 1.94568Z" fill="white" stroke="white" stroke-width="0.2"/>
</svg>
