<svg width="41" height="42" viewBox="0 0 41 42" fill="none" xmlns="http://www.w3.org/2000/svg">
<path d="M24.6555 3.35526C24.7112 3.14713 24.8074 2.952 24.9385 2.78103C25.0696 2.61007 25.2331 2.46661 25.4196 2.35885C25.6062 2.2511 25.8122 2.18116 26.0258 2.15304C26.2394 2.12492 26.4565 2.13916 26.6646 2.19495C29.7049 2.9882 32.4788 4.57758 34.7005 6.79937C36.9223 9.02116 38.5117 11.7951 39.3049 14.8354C39.3607 15.0435 39.375 15.2605 39.3469 15.4741C39.3187 15.6877 39.2488 15.8937 39.141 16.0803C39.0333 16.2669 38.8898 16.4304 38.7189 16.5615C38.5479 16.6926 38.3528 16.7887 38.1446 16.8444C38.0061 16.8808 37.8635 16.8994 37.7203 16.8997C37.3592 16.8999 37.0081 16.7808 36.7216 16.561C36.435 16.3411 36.2291 16.0329 36.1356 15.6841C35.489 13.2018 34.192 10.9369 32.3783 9.12288C30.5647 7.30887 28.3001 6.01142 25.8179 5.36428C25.6096 5.30883 25.4142 5.21286 25.243 5.08184C25.0718 4.95083 24.9282 4.78735 24.8202 4.60076C24.7123 4.41416 24.6421 4.20812 24.6139 3.9944C24.5856 3.78069 24.5998 3.5635 24.6555 3.35526ZM24.1779 11.9243C27.0049 12.6788 28.8212 14.4971 29.5756 17.3241C29.669 17.6729 29.875 17.9812 30.1615 18.201C30.448 18.4208 30.7991 18.5399 31.1602 18.5398C31.3035 18.5394 31.4461 18.5208 31.5846 18.4844C31.7927 18.4287 31.9879 18.3326 32.1588 18.2015C32.3298 18.0704 32.4732 17.9069 32.581 17.7203C32.6888 17.5337 32.7587 17.3278 32.7868 17.1142C32.8149 16.9005 32.8007 16.6835 32.7449 16.4754C31.6953 12.5476 28.9524 9.80462 25.0245 8.75501C24.6043 8.64274 24.1566 8.70202 23.78 8.91981C23.4035 9.13761 23.1288 9.49607 23.0166 9.91635C22.9043 10.3366 22.9636 10.7843 23.1814 11.1609C23.3991 11.5374 23.7576 11.8121 24.1779 11.9243ZM39.0261 28.0642L29.3685 23.7366L29.3419 23.7243C28.8405 23.5098 28.2936 23.4238 27.7506 23.4739C27.2076 23.524 26.6857 23.7087 26.232 24.0113C26.1786 24.0465 26.1273 24.0849 26.0783 24.1261L21.0885 28.3799C17.9274 26.8444 14.6638 23.6054 13.1283 20.4852L17.3882 15.4196C17.4292 15.3684 17.4682 15.3171 17.5051 15.2618C17.8012 14.8093 17.9808 14.2907 18.028 13.7521C18.0752 13.2134 17.9886 12.6715 17.7757 12.1744V12.1498L13.4358 2.4758C13.1544 1.82649 12.6706 1.28559 12.0565 0.933859C11.4425 0.582123 10.7311 0.438414 10.0287 0.524185C7.25086 0.889718 4.70107 2.25393 2.85555 4.36202C1.01003 6.47011 -0.00500394 9.17792 1.85498e-05 11.9797C1.85498e-05 28.2569 13.2431 41.5 29.5202 41.5C32.322 41.505 35.0298 40.49 37.1379 38.6444C39.246 36.7989 40.6102 34.2491 40.9757 31.4713C41.0616 30.7691 40.9182 30.0579 40.5669 29.4439C40.2155 28.8298 39.6751 28.3459 39.0261 28.0642Z" fill="#666666"/>
</svg>
