<svg width="38" height="28" viewBox="0 0 38 28" fill="none" xmlns="http://www.w3.org/2000/svg">
<path d="M37.05 4.7377C36.575 3.0752 35.3875 1.8877 33.725 1.4127C30.875 0.700196 18.7625 0.700195 18.7625 0.700195C18.7625 0.700195 6.88751 0.700196 3.80001 1.4127C2.13751 1.8877 0.949993 3.0752 0.474993 4.7377C-7.255e-06 7.8252 0 14.0002 0 14.0002C0 14.0002 7.21961e-06 20.1752 0.712507 23.2627C1.18751 24.9252 2.37499 26.1127 4.03749 26.5877C6.88749 27.3002 19 27.3002 19 27.3002C19 27.3002 30.875 27.3002 33.9625 26.5877C35.625 26.1127 36.8125 24.9252 37.2875 23.2627C38 20.1752 38 14.0002 38 14.0002C38 14.0002 38 7.8252 37.05 4.7377ZM15.2 19.7002V8.3002L25.175 14.0002L15.2 19.7002Z" fill="white"/>
</svg>
