<svg width="159" height="139" viewBox="0 0 159 139" fill="none" xmlns="http://www.w3.org/2000/svg">
<g id="Group 27380">
<path id="Rectangle 2803" d="M0 33.1754C0 23.7414 6.59241 15.5903 15.8178 13.6176L71.1356 1.7886C76.6496 0.609529 82.3504 0.60953 87.8644 1.78861L143.182 13.6176C152.408 15.5903 159 23.7414 159 33.1754V119C159 130.046 150.046 139 139 139H20C8.95431 139 0 130.046 0 119V33.1754Z" fill="#EEF6FA"/>
<path id="$" d="M75.3828 105.648V99.0469C72.1797 98.9948 69.3021 98.7344 66.75 98.2656C64.1979 97.7969 62.0625 97.237 60.3438 96.5859V92.6016C62.1667 93.3568 64.4193 94.0078 67.1016 94.5547C69.7839 95.1016 72.5443 95.401 75.3828 95.4531V73.5C72.362 72.4844 69.7057 71.3906 67.4141 70.2188C65.1484 69.0208 63.3776 67.5365 62.1016 65.7656C60.8255 63.9688 60.1875 61.7031 60.1875 58.9688C60.1875 56.2083 60.8385 53.8776 62.1406 51.9766C63.4427 50.0495 65.2396 48.5651 67.5312 47.5234C69.8229 46.4557 72.4401 45.8438 75.3828 45.6875V40.2969H78.5078V45.6484C80.9036 45.7005 83.2083 45.974 85.4219 46.4688C87.6615 46.9635 89.8229 47.6797 91.9062 48.6172L90.5391 51.9766C88.5078 51.0911 86.4635 50.4271 84.4062 49.9844C82.349 49.5156 80.3828 49.2422 78.5078 49.1641V70.6484C81.7109 71.7161 84.4714 72.8359 86.7891 74.0078C89.1328 75.1797 90.9297 76.625 92.1797 78.3438C93.4557 80.0625 94.0938 82.3151 94.0938 85.1016C94.0938 89.3203 92.6615 92.5885 89.7969 94.9062C86.9583 97.224 83.1953 98.5651 78.5078 98.9297V105.648H75.3828ZM78.5078 95.2969C82.0495 95.0625 84.875 94.125 86.9844 92.4844C89.0938 90.8177 90.1484 88.3958 90.1484 85.2188C90.1484 83.3177 89.7057 81.7552 88.8203 80.5312C87.9349 79.2812 86.6328 78.2005 84.9141 77.2891C83.1953 76.3776 81.0599 75.4922 78.5078 74.6328V95.2969ZM75.3828 69.5547V49.2031C73.1693 49.3333 71.2161 49.776 69.5234 50.5312C67.8307 51.2604 66.5026 52.3021 65.5391 53.6562C64.6016 55.0104 64.1328 56.6771 64.1328 58.6562C64.1328 60.7396 64.6016 62.4453 65.5391 63.7734C66.5026 65.1016 67.8307 66.2214 69.5234 67.1328C71.2161 68.0182 73.1693 68.8255 75.3828 69.5547Z" fill="#006299"/>
</g>
</svg>
