<svg width="159" height="139" viewBox="0 0 159 139" fill="none" xmlns="http://www.w3.org/2000/svg">
<path d="M0 33.1754C0 23.7414 6.59241 15.5903 15.8178 13.6176L71.1356 1.7886C76.6496 0.609529 82.3504 0.60953 87.8644 1.78861L143.182 13.6176C152.408 15.5903 159 23.7414 159 33.1754V119C159 130.046 150.046 139 139 139H20C8.95431 139 0 130.046 0 119V33.1754Z" fill="#EEF6FA"/>
<path d="M53.7844 42.6637C53.7838 42.6644 53.7832 42.6652 53.7823 42.6661C53.7821 42.6664 53.7818 42.6666 53.7818 42.6667C53.7816 42.6668 53.7885 42.6605 53.8396 42.6251L53.8398 42.6249C53.8949 42.5868 53.9826 42.5261 54.0775 42.4306C54.2334 42.278 54.4151 42.1542 54.6141 42.065C54.631 42.0602 54.6555 42.0534 54.6882 42.0444C54.7593 42.0249 54.8641 41.9965 55.0008 41.9597C55.274 41.8863 55.672 41.7802 56.1775 41.646C57.1884 41.3777 58.6279 40.9976 60.3565 40.5433C63.8137 39.6348 68.4267 38.4298 73.0788 37.2292C77.7312 36.0285 82.4213 34.8327 86.0333 33.9423C87.8397 33.497 89.3739 33.1287 90.4982 32.8745C91.0608 32.7473 91.517 32.6495 91.8518 32.5851C92.0196 32.5528 92.1525 32.5297 92.2508 32.5155C92.3236 32.505 92.3618 32.5018 92.3759 32.5006C92.3836 32.5 92.384 32.4999 92.3787 32.4996L92.3932 32.5005L92.4078 32.5005C94.2779 32.5034 96.0706 33.2476 97.3929 34.5699C98.7153 35.8923 99.4594 37.685 99.4623 39.5551V41.689V42.0763L99.8373 42.1732C101.743 42.6652 103.432 43.7763 104.637 45.332C105.843 46.8876 106.499 48.7997 106.5 50.768V97.6854C106.5 100.041 105.564 102.301 103.898 103.967C102.232 105.633 99.9725 106.569 97.6165 106.569H55.3905C54.9009 106.569 54.4314 106.374 54.0852 106.028C53.7391 105.682 53.5446 105.213 53.5446 104.723C53.5446 88.7559 53.527 76.904 53.5139 68.0972C53.4997 58.58 53.4909 52.6189 53.5152 48.8634C53.5388 45.2306 53.594 43.7028 53.6973 43.0173C53.7365 42.7575 53.7757 42.6781 53.7844 42.6637ZM53.7844 42.6637C53.7856 42.6622 53.7862 42.6612 53.7862 42.6611C53.7862 42.661 53.7856 42.6618 53.7844 42.6637ZM54.5951 42.0705L54.5951 42.0705L54.5951 42.0705ZM95.2706 41.8841H95.7706V41.3841V39.5543C95.7706 38.6626 95.4164 37.8075 94.7859 37.177C94.1554 36.5465 93.3002 36.1923 92.4086 36.1923C92.3976 36.1923 92.3904 36.192 92.3738 36.1913L92.3627 36.1908C92.3377 36.1897 92.302 36.1885 92.2569 36.1903C92.1697 36.1939 92.0722 36.2082 91.9342 36.2355C91.6596 36.2899 91.14 36.4136 90.0504 36.6884C87.8623 37.2402 83.3267 38.4137 73.7272 40.9L73.8526 41.8841H95.2706ZM57.2364 102.377V102.877H57.7364H97.6165C98.9934 102.877 100.314 102.33 101.288 101.357C102.261 100.383 102.808 99.0623 102.808 97.6854V50.7676C102.808 49.3907 102.261 48.0701 101.288 47.0965C100.314 46.1228 98.9934 45.5758 97.6165 45.5758H57.7364H57.2364V46.0758V102.377Z" fill="#006299" stroke="#EEF6FA"/>
<path d="M91.517 65.3429H92.1298L92.0069 64.7426C91.6537 63.0176 90.9321 61.3892 89.8916 59.9687C88.851 58.5482 87.516 57.3692 85.9777 56.5122L84.5347 55.7083L85.2897 57.1775C86.5269 59.585 87.3045 62.202 87.5829 64.8944L87.6293 65.3429H88.0803H91.517ZM76.1952 64.7784L76.1217 65.3429H76.691H83.3533H83.9227L83.8491 64.7784C83.4504 61.716 82.2705 58.8077 80.4228 56.3332L80.0222 55.7966L79.6215 56.3332C77.7739 58.8077 76.5939 61.716 76.1952 64.7784ZM83.8491 69.5993L83.9227 69.0347H83.3533H76.691H76.1217L76.1952 69.5993C76.5939 72.6616 77.7739 75.5699 79.6215 78.0445L80.0222 78.581L80.4228 78.0445C82.2705 75.5699 83.4504 72.6616 83.8491 69.5993ZM74.7547 57.1775L75.5097 55.7083L74.0666 56.5122C72.5284 57.3692 71.1933 58.5482 70.1528 59.9687C69.1122 61.3892 68.3907 63.0176 68.0375 64.7426L67.9146 65.3429H68.5273H71.964H72.415L72.4614 64.8944C72.7398 62.202 73.5175 59.585 74.7547 57.1775ZM68.5273 69.0347H67.9146L68.0375 69.635C68.3907 71.36 69.1122 72.9885 70.1528 74.409C71.1933 75.8294 72.5284 77.0084 74.0666 77.8654L75.5097 78.6694L74.7547 77.2001C73.5175 74.7926 72.7398 72.1757 72.4614 69.4833L72.415 69.0347H71.964H68.5273ZM85.2897 77.2001L84.5347 78.6694L85.9777 77.8654C87.516 77.0084 88.851 75.8294 89.8916 74.409C90.9321 72.9885 91.6537 71.36 92.0069 69.635L92.1298 69.0347H91.517H88.0803H87.6293L87.5829 69.4833C87.3045 72.1757 86.5269 74.7926 85.2897 77.2001ZM71.2431 53.9065C73.8733 52.168 76.9604 51.2496 80.1132 51.2676C84.3199 51.2916 88.3462 52.9796 91.3124 55.9629C94.2785 58.9461 95.9435 62.982 95.9434 67.1888C95.9433 70.3416 95.0072 73.4234 93.2537 76.0435C91.5002 78.6637 89.0083 80.7043 86.0938 81.9066C83.1792 83.1089 79.9734 83.4188 76.8825 82.7971C73.7916 82.1754 70.9549 80.65 68.732 78.4142C66.509 76.1785 64.9999 73.3331 64.3959 70.2387C63.7919 67.1444 64.1202 63.9403 65.3392 61.0327C66.5582 58.1251 68.613 55.6449 71.2431 53.9065ZM66.9875 91.6883C67.3337 91.3422 67.8032 91.1477 68.2927 91.1477H91.7516C92.2412 91.1477 92.7107 91.3422 93.0569 91.6883C93.403 92.0345 93.5975 92.504 93.5975 92.9936C93.5975 93.4831 93.403 93.9527 93.0569 94.2988C92.7107 94.645 92.2412 94.8395 91.7516 94.8395H68.2927C67.8032 94.8395 67.3337 94.645 66.9875 94.2988C66.6413 93.9527 66.4468 93.4831 66.4468 92.9936C66.4468 92.504 66.6413 92.0345 66.9875 91.6883Z" fill="#006299" stroke="#EEF6FA"/>
</svg>
