<svg width="159" height="139" viewBox="0 0 159 139" fill="none" xmlns="http://www.w3.org/2000/svg">
<path d="M0 33.1754C0 23.7414 6.59241 15.5903 15.8178 13.6176L71.1356 1.7886C76.6496 0.609529 82.3504 0.60953 87.8644 1.78861L143.182 13.6176C152.408 15.5903 159 23.7414 159 33.1754V119C159 130.046 150.046 139 139 139H20C8.95431 139 0 130.046 0 119V33.1754Z" fill="#EEF6FA"/>
<g clip-path="url(#clip0_320_54)">
<path d="M80.5 70.9167C79.4287 70.9167 78.3815 70.599 77.4907 70.0038C76.5999 69.4086 75.9057 68.5626 75.4957 67.5729C75.0857 66.5831 74.9785 65.494 75.1875 64.4433C75.3965 63.3925 75.9123 62.4274 76.6699 61.6699C77.4274 60.9123 78.3926 60.3964 79.4433 60.1874C80.494 59.9784 81.5831 60.0857 82.5729 60.4957C83.5627 60.9056 84.4086 61.5999 85.0038 62.4907C85.599 63.3814 85.9167 64.4287 85.9167 65.5C85.9167 66.9366 85.346 68.3144 84.3302 69.3302C83.3144 70.346 81.9366 70.9167 80.5 70.9167ZM80.5 62.7917C79.9644 62.7917 79.4408 62.9505 78.9954 63.2481C78.55 63.5457 78.2029 63.9687 77.9979 64.4636C77.7929 64.9585 77.7392 65.503 77.8437 66.0284C77.9483 66.5537 78.2062 67.0363 78.585 67.4151C78.9637 67.7939 79.4463 68.0518 79.9717 68.1563C80.497 68.2608 81.0416 68.2072 81.5365 68.0022C82.0314 67.7972 82.4543 67.4501 82.7519 67.0047C83.0495 66.5593 83.2084 66.0357 83.2084 65.5C83.2084 64.7817 82.923 64.0928 82.4151 63.5849C81.9072 63.077 81.2183 62.7917 80.5 62.7917Z" fill="#006299"/>
<path d="M68.6129 52.7988L70.7278 51.1069L79.0349 61.4908L76.9201 63.1827L68.6129 52.7988Z" fill="#006299"/>
<path d="M83.3815 62.3392L92.0241 57.5406L93.3388 59.9084L84.6961 64.707L83.3815 62.3392Z" fill="#006299"/>
<path d="M96.75 64.1458H99.4583V66.8542H96.75V64.1458ZM61.5416 64.1458H64.25V66.8542H61.5416V64.1458ZM79.1458 46.5417H81.8541V49.25H79.1458V46.5417ZM79.1458 81.75H81.8541V84.4583H79.1458V81.75Z" fill="#006299"/>
<path d="M80.5 98C74.0721 98 67.7886 96.0939 62.444 92.5228C57.0994 88.9516 52.9338 83.8758 50.4739 77.9372C48.0141 71.9986 47.3705 65.464 48.6245 59.1596C49.8785 52.8552 52.9738 47.0643 57.519 42.519C62.0643 37.9738 67.8552 34.8785 74.1596 33.6245C80.464 32.3705 86.9986 33.0141 92.9372 35.4739C98.8758 37.9338 103.952 42.0994 107.523 47.444C111.094 52.7886 113 59.0721 113 65.5C113 74.1195 109.576 82.3861 103.481 88.481C97.3861 94.5759 89.1195 98 80.5 98ZM80.5 35.7083C74.6078 35.7083 68.8479 37.4556 63.9487 40.7291C59.0494 44.0027 55.231 48.6555 52.9761 54.0992C50.7212 59.543 50.1313 65.5331 51.2808 71.3121C52.4303 77.0911 55.2677 82.3995 59.4341 86.5659C63.6006 90.7323 68.9089 93.5697 74.688 94.7192C80.467 95.8688 86.4571 95.2788 91.9008 93.0239C97.3445 90.7691 101.997 86.9506 105.271 82.0514C108.544 77.1522 110.292 71.3923 110.292 65.5C110.292 57.5988 107.153 50.0211 101.566 44.4341C95.9789 38.8471 88.4013 35.7083 80.5 35.7083Z" fill="#006299"/>
<path d="M80.5 88.5208C75.2361 88.522 70.1307 86.7192 66.0347 83.4127C61.9388 80.1063 59.0997 75.496 57.9906 70.3501C56.8816 65.2043 57.5696 59.8338 59.9399 55.1337C62.3103 50.4337 66.2199 46.6879 71.017 44.5207C75.8142 42.3535 81.2092 41.8958 86.3029 43.2239C91.3966 44.552 95.8812 47.5857 99.0095 51.8193C102.138 56.0529 103.721 61.2307 103.494 66.4898C103.268 71.7489 101.246 76.7716 97.7657 80.7208L95.7344 78.9333C99.0982 75.1192 100.909 70.182 100.809 65.0975C100.708 60.0129 98.7044 55.151 95.1929 51.4724C91.6814 47.7938 86.9178 45.5662 81.8434 45.2299C76.769 44.8936 71.753 46.4729 67.7867 49.6559C63.8205 52.8388 61.1924 57.3938 60.422 62.4206C59.6515 67.4474 60.7947 72.5804 63.6256 76.8051C66.4565 81.0299 70.7692 84.039 75.7114 85.2379C80.6536 86.4368 85.8657 85.7382 90.3178 83.2802L91.6719 85.65C88.2519 87.5395 84.4073 88.5275 80.5 88.5208Z" fill="#006299"/>
<path d="M103.521 81.75H95.3958C95.0366 81.75 94.6922 81.6073 94.4383 81.3534C94.1843 81.0994 94.0416 80.755 94.0416 80.3958V72.2708H96.75V79.0417H103.521V81.75Z" fill="#006299"/>
</g>
<defs>
<clipPath id="clip0_320_54">
<rect width="65" height="65" fill="white" transform="translate(48 33)"/>
</clipPath>
</defs>
</svg>
