<svg width="159" height="139" viewBox="0 0 159 139" fill="none" xmlns="http://www.w3.org/2000/svg">
<path d="M0 33.1754C0 23.7414 6.59241 15.5903 15.8178 13.6176L71.1356 1.7886C76.6496 0.609529 82.3504 0.60953 87.8644 1.78861L143.182 13.6176C152.408 15.5903 159 23.7414 159 33.1754V119C159 130.046 150.046 139 139 139H20C8.95431 139 0 130.046 0 119V33.1754Z" fill="#EEF6FA"/>
<path d="M97.5206 82.912C97.3185 82.9111 97.1186 82.8702 96.9325 82.7915C96.7463 82.7129 96.5776 82.5981 96.4362 82.4538L68.0887 54.0604C67.8042 53.7743 67.6445 53.3872 67.6445 52.9836C67.6445 52.5801 67.8042 52.193 68.0887 51.9069L79.5285 40.4518C79.6705 40.3086 79.8394 40.195 80.0255 40.1175C80.2116 40.0399 80.4113 40 80.6129 40C80.8145 40 81.0142 40.0399 81.2003 40.1175C81.3864 40.195 81.5553 40.3086 81.6973 40.4518L110.045 68.8146C110.186 68.9573 110.298 69.1265 110.374 69.3126C110.45 69.4987 110.489 69.698 110.488 69.899C110.486 70.2997 110.327 70.6836 110.045 70.9681L98.605 82.4079C98.4675 82.5606 98.3005 82.6839 98.1142 82.7705C97.9279 82.8571 97.726 82.9052 97.5206 82.912ZM71.3266 52.9913L97.5206 79.17L106.807 69.899L80.6129 43.6898L71.3266 52.9913Z" fill="#006299"/>
<path d="M93.3665 78.7117C93.0631 78.7134 92.7661 78.6248 92.5133 78.4571C92.2605 78.2894 92.0633 78.0502 91.947 77.77C91.8307 77.4899 91.8004 77.1814 91.8601 76.8839C91.9197 76.5865 92.0666 76.3135 92.282 76.0999L103.737 64.6601C104.023 64.3705 104.412 64.2062 104.818 64.2033C105.225 64.2004 105.616 64.3593 105.906 64.6448C106.196 64.9304 106.36 65.3193 106.363 65.7261C106.366 66.1328 106.207 66.524 105.921 66.8137L94.4509 78.3298C94.1529 78.5935 93.7639 78.7305 93.3665 78.7117ZM73.3124 58.6729C72.9096 58.6672 72.5253 58.5025 72.2433 58.2147C71.9588 57.9285 71.7991 57.5414 71.7991 57.1379C71.7991 56.7344 71.9588 56.3473 72.2433 56.0612L83.6831 44.6061C83.9707 44.3185 84.3608 44.1569 84.7675 44.1569C85.1742 44.1569 85.5643 44.3185 85.8519 44.6061C86.1395 44.8937 86.3011 45.2838 86.3011 45.6905C86.3011 46.0972 86.1395 46.4873 85.8519 46.7749L74.3968 58.2147C74.2554 58.359 74.0867 58.4738 73.9005 58.5525C73.7144 58.6311 73.5145 58.6721 73.3124 58.6729ZM51.3034 104.432C50.6049 104.439 49.9121 104.307 49.2647 104.045C48.6172 103.783 48.028 103.395 47.5308 102.905C47.0222 102.389 46.6244 101.775 46.3618 101.1C46.0991 100.425 45.9772 99.7034 46.0035 98.9795C46.146 96.5465 47.2439 94.2684 49.0582 92.6411C49.8677 91.8927 51.4409 90.3348 53.5333 88.2728C60.2078 81.6747 71.4032 70.6473 79.9564 63.5604C80.2501 63.3213 80.6221 63.1999 81.0003 63.2196C81.3785 63.2394 81.7358 63.399 82.003 63.6673L86.7225 68.3715C86.9887 68.6407 87.1454 68.9991 87.1624 69.3772C87.1793 69.7554 87.0552 70.1263 86.8141 70.4182C79.9564 78.9866 68.8679 90.1057 62.285 96.7649C60.1773 98.8879 58.5888 100.507 57.7793 101.347C56.9762 102.249 56.0027 102.983 54.9149 103.507C53.8272 104.031 52.6465 104.335 51.4409 104.402L51.3034 104.432ZM80.9186 66.89C72.6098 73.8853 62.117 84.2407 55.748 90.5486C53.6402 92.6258 52.0365 94.2142 51.1659 94.9626C49.9387 96.0183 49.1806 97.518 49.0582 99.1323C49.0234 99.7534 49.2253 100.365 49.6233 100.843C49.8539 101.045 50.1231 101.197 50.4145 101.292C50.7059 101.386 51.0136 101.421 51.3187 101.393C52.1232 101.336 52.9086 101.121 53.6295 100.759C54.3504 100.397 54.9925 99.8962 55.5189 99.285C56.3284 98.4297 57.9473 96.7802 60.1009 94.6266C66.363 88.2881 76.6879 77.8258 83.6373 69.624L80.9186 66.89ZM112.321 104.432H78.0777C77.6727 104.432 77.2842 104.271 76.9977 103.985C76.7113 103.698 76.5504 103.31 76.5504 102.905V99.3614C76.5544 97.2805 77.3828 95.286 78.8542 93.8147C80.3256 92.3433 82.3201 91.5149 84.4009 91.5108H105.998C108.078 91.5149 110.073 92.3433 111.544 93.8147C113.016 95.286 113.844 97.2805 113.848 99.3614V102.905C113.848 103.31 113.687 103.698 113.401 103.985C113.114 104.271 112.726 104.432 112.321 104.432ZM79.6051 101.377H110.793V99.3614C110.789 98.0907 110.283 96.8732 109.384 95.9746C108.486 95.0761 107.268 94.5695 105.998 94.5655H84.4009C83.1302 94.5695 81.9127 95.0761 81.0142 95.9746C80.1157 96.8732 79.6091 98.0907 79.6051 99.3614V101.377Z" fill="#006299"/>
</svg>
